#!OML:ASF H:\Dans Jumps\Project 1\Capture day 1\Session 1\subject.ASF
:FULLY-SPECIFIED
:DEGREES
192
root 0.4745 17.5457 -13.8552 5.70647 -0.737437 -1.51508
lowerback -1.82538 -0.451393 0.178839
upperback 2.94325 -0.678551 1.88506
thorax 4.07574 -0.364393 1.80736
lowerneck -14.2799 0.951619 -1.40958
upperneck 30.9285 1.98 -0.627465
head 12.6312 0.625535 0.297679
rclavicle -7.70291e-015 1.59028e-014
rhumerus -24.7139 -20.1382 -77.6219
rradius 22.8916
rwrist 34.9998
rhand -20.7521 -27.2806
rfingers 7.12502
rthumb 5.61372 -57.1862
lclavicle -7.70291e-015 1.59028e-014
lhumerus -20.9321 1.04851 87.93
lradius 17.3413
lwrist 1.31269
lhand -25.1572 -4.14628
lfingers 7.12502
lthumb 1.35976 25.8291
rfemur -13.1143 -2.1638 19.6522
rtibia 22.2071
rfoot -13.875 -1.84855
rtoes 10.0027
lfemur -11.7266 7.23342 -18.1675
ltibia 20.0205
lfoot -12.0601 4.55369
ltoes 2.61497
193
root 0.47465 17.5445 -13.8561 5.70917 -0.728409 -1.52667
lowerback -1.80534 -0.451004 0.182387
upperback 2.9482 -0.678155 1.88962
thorax 4.06953 -0.364168 1.81023
lowerneck -14.2771 0.951979 -1.40004
upperneck 30.9075 1.97907 -0.632785
head 12.6221 0.625839 0.293753
rclavicle 7.40473e-015 -5.96354e-015
rhumerus -24.6849 -20.1094 -77.6375
rradius 22.9038
rwrist 34.974
rhand -20.7423 -27.2812
rfingers 7.12502
rthumb 5.62313 -57.1866
lclavicle 7.40473e-015 -5.96354e-015
lhumerus -20.9098 1.06046 87.9299
lradius 17.3422
lwrist 1.30764
lhand -25.1576 -4.15129
lfingers 7.12502
lthumb 1.35932 25.8241
rfemur -13.1395 -2.15361 19.6649
rtibia 22.2463
rfoot -13.8883 -1.86547
rtoes 9.99827
lfemur -11.7718 7.23301 -18.157
ltibia 20.09
lfoot -12.08 4.55675
ltoes 2.58136
194
root 0.474727 17.5432 -13.8573 5.71513 -0.721326 -1.54646
lowerback -1.78129 -0.448547 0.193866
upperback 2.95227 -0.675289 1.89597
thorax 4.05998 -0.362485 1.81064
lowerneck -14.2781 0.952259 -1.38595
upperneck 30.8856 1.97814 -0.642181
head 12.6136 0.626135 0.28751
rclavicle 4.87022e-015 2.38542e-015
rhumerus -24.6582 -20.0832 -77.6525
rradius 22.9176
rwrist 34.9475
rhand -20.7218 -27.2954
rfingers 7.12502
rthumb 5.64292 -57.2003
lclavicle 4.87022e-015 2.38542e-015
lhumerus -20.8892 1.06699 87.9303
lradius 17.3477
lwrist 1.30622
lhand -25.1571 -4.15848
lfingers 7.12502
lthumb 1.35985 25.8169
rfemur -13.1698 -2.13316 19.6876
rtibia 22.2849
rfoot -13.8975 -1.89252
rtoes 9.9816
lfemur -11.8286 7.23347 -18.1376
ltibia 20.1725
lfoot -12.1039 4.5617
ltoes 2.55148
195
root 0.474876 17.5418 -13.8588 5.72319 -0.716413 -1.56916
lowerback -1.75355 -0.444816 0.208854
upperback 2.95511 -0.670785 1.90268
thorax 4.04697 -0.359869 1.80956
lowerneck -14.2824 0.952264 -1.37148
upperneck 30.8642 1.97687 -0.651842
head 12.606 0.626273 0.281077
rclavicle 6.21202e-015 -1.39149e-014
rhumerus -24.6351 -20.0534 -77.6677
rradius 22.9345
rwrist 34.9123
rhand -20.7029 -27.3097
rfingers 7.12502
rthumb 5.66121 -57.214
lclavicle 6.21202e-015 -1.39149e-014
lhumerus -20.8727 1.06745 87.9317
lradius 17.3579
lwrist 1.3119
lhand -25.158 -4.17441
lfingers 7.12502
lthumb 1.35896 25.801
rfemur -13.2054 -2.1093 19.7136
rtibia 22.3266
rfoot -13.9052 -1.92344
rtoes 9.95559
lfemur -11.8933 7.2339 -18.1157
ltibia 20.264
lfoot -12.1296 4.5707
ltoes 2.51828
196
root 0.475061 17.5402 -13.8606 5.73548 -0.713619 -1.59939
lowerback -1.72382 -0.438748 0.232297
upperback 2.95632 -0.663438 1.91036
thorax 4.03096 -0.355579 1.80489
lowerneck -14.286 0.951016 -1.35334
upperneck 30.8403 1.97357 -0.664214
head 12.5973 0.625619 0.27266
rclavicle 6.60959e-015 -3.97569e-015
rhumerus -24.6169 -20.0314 -77.6811
rradius 22.9529
rwrist 34.8767
rhand -20.6828 -27.3298
rfingers 7.12502
rthumb 5.68061 -57.2336
lclavicle 6.60959e-015 -3.97569e-015
lhumerus -20.8592 1.05361 87.9352
lradius 17.3713
lwrist 1.33143
lhand -25.1634 -4.19374
lfingers 7.12502
lthumb 1.35378 25.7817
rfemur -13.2496 -2.08158 19.7481
rtibia 22.372
rfoot -13.9122 -1.95622
rtoes 9.92793
lfemur -11.9682 7.23487 -18.0864
ltibia 20.3646
lfoot -12.1581 4.58192
ltoes 2.48274
197
root 0.475646 17.5386 -13.8626 5.74854 -0.708947 -1.61961
lowerback -1.69369 -0.434928 0.247639
upperback 2.95751 -0.658686 1.91561
thorax 4.01486 -0.352791 1.80211
lowerneck -14.2865 0.94883 -1.35101
upperneck 30.8144 1.96891 -0.663082
head 12.5868 0.624327 0.271918
rclavicle 1.03865e-014 -1.07344e-014
rhumerus -24.6008 -20.0048 -77.6939
rradius 22.976
rwrist 34.8305
rhand -20.6922 -27.3237
rfingers 7.12502
rthumb 5.67153 -57.2278
lclavicle 1.03865e-014 -1.07344e-014
lhumerus -20.8494 1.0461 87.9377
lradius 17.3889
lwrist 1.34779
lhand -25.172 -4.19815
lfingers 7.12502
lthumb 1.34547 25.7774
rfemur -13.2986 -2.07181 19.7702
rtibia 22.4233
rfoot -13.922 -1.97518
rtoes 9.8977
lfemur -12.0482 7.23277 -18.07
ltibia 20.4729
lfoot -12.1902 4.59423
ltoes 2.44904
198
root 0.475918 17.5367 -13.8647 5.76291 -0.707466 -1.64757
lowerback -1.66155 -0.430633 0.264153
upperback 2.95629 -0.653401 1.92491
thorax 3.99514 -0.349753 1.80291
lowerneck -14.2531 0.952409 -1.33992
upperneck 30.7676 1.9715 -0.669891
head 12.5607 0.626656 0.26737
rclavicle -6.95746e-015 -1.59028e-015
rhumerus -24.5971 -19.9804 -77.7003
rradius 23.005
rwrist 34.8041
rhand -20.6976 -27.3204
rfingers 7.12502
rthumb 5.66633 -57.2246
lclavicle -6.95746e-015 -1.59028e-015
lhumerus -20.8465 1.05176 87.9366
lradius 17.3992
lwrist 1.36043
lhand -25.1852 -4.21087
lfingers 7.12502
lthumb 1.33268 25.7647
rfemur -13.3534 -2.0519 19.802
rtibia 22.4802
rfoot -13.9325 -2.00102
rtoes 9.87127
lfemur -12.135 7.23468 -18.0442
ltibia 20.5898
lfoot -12.2246 4.6072
ltoes 2.40695
199
root 0.476311 17.5346 -13.8672 5.77995 -0.707396 -1.67679
lowerback -1.62583 -0.426345 0.280065
upperback 2.95588 -0.648122 1.93623
thorax 3.97428 -0.346775 1.80613
lowerneck -14.222 0.953696 -1.33813
upperneck 30.7159 1.97149 -0.670943
head 12.5329 0.627549 0.266248
rclavicle -1.27719e-014 2.14687e-014
rhumerus -24.5937 -19.9516 -77.7051
rradius 23.0367
rwrist 34.7713
rhand -20.7135 -27.3045
rfingers 7.12502
rthumb 5.65101 -57.2091
lclavicle -1.27719e-014 2.14687e-014
lhumerus -20.8444 1.05082 87.9393
lradius 17.4155
lwrist 1.39184
lhand -25.2093 -4.23678
lfingers 7.12502
lthumb 1.30946 25.739
rfemur -13.4176 -2.03464 19.8349
rtibia 22.5458
rfoot -13.9454 -2.02276
rtoes 9.83881
lfemur -12.229 7.23645 -18.0178
ltibia 20.7128
lfoot -12.2611 4.62138
ltoes 2.365
200
root 0.476756 17.5324 -13.87 5.80042 -0.709606 -1.70673
lowerback -1.58661 -0.422382 0.29418
upperback 2.95508 -0.643207 1.94949
thorax 3.95108 -0.34406 1.81237
lowerneck -14.1885 0.955017 -1.34363
upperneck 30.6577 1.97189 -0.667351
head 12.502 0.628473 0.26818
rclavicle -1.83876e-015 -1.15295e-014
rhumerus -24.5937 -19.9115 -77.7096
rradius 23.0746
rwrist 34.7335
rhand -20.7135 -27.2992
rfingers 7.12502
rthumb 5.65095 -57.2038
lclavicle -1.83876e-015 -1.15295e-014
lhumerus -20.847 1.04641 87.944
lradius 17.44
lwrist 1.43805
lhand -25.2343 -4.26439
lfingers 7.12502
lthumb 1.2853 25.7115
rfemur -13.4924 -2.01742 19.8684
rtibia 22.62
rfoot -13.96 -2.04132
rtoes 9.8087
lfemur -12.3323 7.23909 -17.9912
ltibia 20.8447
lfoot -12.3014 4.63653
ltoes 2.32516
201
root 0.477409 17.5301 -13.8733 5.82631 -0.714004 -1.73086
lowerback -1.54472 -0.418986 0.301836
upperback 2.95356 -0.638744 1.96261
thorax 3.92571 -0.341757 1.82207
lowerneck -14.1633 0.954499 -1.36005
upperneck 30.5994 1.97026 -0.655649
head 12.4725 0.628244 0.274847
rclavicle -1.63997e-015 -9.54166e-015
rhumerus -24.5946 -19.858 -77.7152
rradius 23.1158
rwrist 34.6799
rhand -20.7132 -27.2948
rfingers 7.12502
rthumb 5.65122 -57.1995
lclavicle -1.63997e-015 -9.54166e-015
lhumerus -20.8536 1.03386 87.9514
lradius 17.474
lwrist 1.49972
lhand -25.2555 -4.29213
lfingers 7.12502
lthumb 1.26481 25.6839
rfemur -13.5816 -2.00652 19.8951
rtibia 22.7063
rfoot -13.9784 -2.05246
rtoes 9.76911
lfemur -12.4466 7.24274 -17.9727
ltibia 20.9841
lfoot -12.3448 4.65278
ltoes 2.2859
202
root 0.478326 17.5276 -13.8771 5.85918 -0.721005 -1.75048
lowerback -1.49898 -0.414835 0.306835
upperback 2.95124 -0.633042 1.97423
thorax 3.89731 -0.338881 1.83179
lowerneck -14.1574 0.950786 -1.38467
upperneck 30.5475 1.96461 -0.63684
head 12.4496 0.626025 0.285203
rclavicle 6.90777e-015 -8.74653e-015
rhumerus -24.5959 -19.7927 -77.724
rradius 23.1627
rwrist 34.6055
rhand -20.7055 -27.306
rfingers 7.12502
rthumb 5.65866 -57.2105
lclavicle 6.90777e-015 -8.74653e-015
lhumerus -20.864 0.998836 87.9629
lradius 17.5218
lwrist 1.58321
lhand -25.277 -4.31934
lfingers 7.12502
lthumb 1.24408 25.6568
rfemur -13.688 -2.00031 19.9163
rtibia 22.806
rfoot -13.9996 -2.05716
rtoes 9.72212
lfemur -12.574 7.24761 -17.9613
ltibia 21.1311
lfoot -12.3896 4.66929
ltoes 2.25279
203
root 0.47944 17.5251 -13.8815 5.89921 -0.731024 -1.76549
lowerback -1.45019 -0.409736 0.309368
upperback 2.94757 -0.625832 1.98374
thorax 3.86573 -0.335278 1.84079
lowerneck -14.1657 0.944483 -1.41562
upperneck 30.5005 1.95515 -0.610968
head 12.4315 0.622175 0.298898
rclavicle -5.11871e-015 -1.15295e-014
rhumerus -24.5974 -19.7184 -77.7355
rradius 23.211
rwrist 34.5136
rhand -20.6907 -27.3286
rfingers 7.12502
rthumb 5.67296 -57.2327
lclavicle -5.11871e-015 -1.15295e-014
lhumerus -20.8771 0.949276 87.9748
lradius 17.5771
lwrist 1.67341
lhand -25.2896 -4.33516
lfingers 7.12502
lthumb 1.23191 25.641
rfemur -13.8123 -1.99568 19.9319
rtibia 22.9206
rfoot -14.0243 -2.05835
rtoes 9.6672
lfemur -12.7147 7.25116 -17.957
ltibia 21.286
lfoot -12.4349 4.68913
ltoes 2.23207
204
root 0.480605 17.5223 -13.8865 5.94709 -0.744913 -1.77723
lowerback -1.39896 -0.403274 0.31003
upperback 2.94182 -0.61656 1.99053
thorax 3.83053 -0.330638 1.84813
lowerneck -14.1812 0.937911 -1.44098
upperneck 30.4549 1.94491 -0.588131
head 12.4156 0.618171 0.310403
rclavicle -4.96962e-015 -1.35174e-014
rhumerus -24.6 -19.6511 -77.7473
rradius 23.2577
rwrist 34.4265
rhand -20.6746 -27.3576
rfingers 7.12502
rthumb 5.68849 -57.2612
lclavicle -4.96962e-015 -1.35174e-014
lhumerus -20.8948 0.881818 87.9852
lradius 17.6371
lwrist 1.77351
lhand -25.2982 -4.35436
lfingers 7.12502
lthumb 1.2236 25.6219
rfemur -13.9554 -1.99084 19.9446
rtibia 23.049
rfoot -14.0506 -2.06092
rtoes 9.58608
lfemur -12.8706 7.25823 -17.9583
ltibia 21.4507
lfoot -12.4812 4.71044
ltoes 2.20574
205
root 0.481876 17.5194 -13.8919 6.00208 -0.762287 -1.78544
lowerback -1.34665 -0.394723 0.309782
upperback 2.93721 -0.604357 1.99404
thorax 3.79579 -0.324514 1.85273
lowerneck -14.2114 0.929488 -1.46385
upperneck 30.4104 1.93174 -0.565472
head 12.4034 0.613048 0.321087
rclavicle -6.26172e-015 -1.98785e-015
rhumerus -24.5983 -19.5911 -77.7606
rradius 23.3024
rwrist 34.3368
rhand -20.6593 -27.3891
rfingers 7.12502
rthumb 5.70326 -57.2923
lclavicle -6.26172e-015 -1.98785e-015
lhumerus -20.9129 0.795139 87.9952
lradius 17.7033
lwrist 1.88382
lhand -25.2961 -4.35325
lfingers 7.12502
lthumb 1.22561 25.623
rfemur -14.1168 -1.9875 19.9543
rtibia 23.1908
rfoot -14.0791 -2.06598
rtoes 9.46801
lfemur -13.0419 7.26774 -17.9657
ltibia 21.6265
lfoot -12.5267 4.73407
ltoes 2.16917
